<svg id="visual" viewBox="0 0 1920 1280" width="1920" height="1280" xmlns="http://www.w3.org/2000/svg" xmlns:xlink="http://www.w3.org/1999/xlink" version="1.1"><rect width="1920" height="1280" fill="#282c34"></rect><g><g transform="translate(968 1108)"><path d="M0 -127.9L110.8 -64L110.8 64L0 127.9L-110.8 64L-110.8 -64Z" stroke="#007aff" fill="none" stroke-width="2"></path></g><g transform="translate(151 443)"><path d="M0 -88L76.2 -44L76.2 44L0 88L-76.2 44L-76.2 -44Z" stroke="#007aff" fill="none" stroke-width="2"></path></g><g transform="translate(1414 301)"><path d="M0 -61L52.8 -30.5L52.8 30.5L0 61L-52.8 30.5L-52.8 -30.5Z" stroke="#007aff" fill="none" stroke-width="2"></path></g><g transform="translate(1615 498)"><path d="M0 -114L98.7 -57L98.7 57L0 114L-98.7 57L-98.7 -57Z" stroke="#007aff" fill="none" stroke-width="2"></path></g><g transform="translate(538 923)"><path d="M0 -61L52.8 -30.5L52.8 30.5L0 61L-52.8 30.5L-52.8 -30.5Z" stroke="#007aff" fill="none" stroke-width="2"></path></g><g transform="translate(1898 1057)"><path d="M0 -55L47.6 -27.5L47.6 27.5L0 55L-47.6 27.5L-47.6 -27.5Z" stroke="#007aff" fill="none" stroke-width="2"></path></g><g transform="translate(206 1104)"><path d="M0 -123L106.5 -61.5L106.5 61.5L0 123L-106.5 61.5L-106.5 -61.5Z" stroke="#007aff" fill="none" stroke-width="2"></path></g><g transform="translate(623 438)"><path d="M0 -97L84 -48.5L84 48.5L0 97L-84 48.5L-84 -48.5Z" stroke="#007aff" fill="none" stroke-width="2"></path></g><g transform="translate(1324 1248)"><path d="M0 -99L85.7 -49.5L85.7 49.5L0 99L-85.7 49.5L-85.7 -49.5Z" stroke="#007aff" fill="none" stroke-width="2"></path></g><g transform="translate(1321 49)"><path d="M0 -55L47.6 -27.5L47.6 27.5L0 55L-47.6 27.5L-47.6 -27.5Z" stroke="#007aff" fill="none" stroke-width="2"></path></g><g transform="translate(744 205)"><path d="M0 -91L78.8 -45.5L78.8 45.5L0 91L-78.8 45.5L-78.8 -45.5Z" stroke="#007aff" fill="none" stroke-width="2"></path></g></g></svg>